<svg width="25" height="25" viewBox="0 0 25 25" fill="none" xmlns="http://www.w3.org/2000/svg">
<path d="M11.627 4.26121H7.42695C5.7468 4.26121 4.90672 4.26121 4.26498 4.58819C3.7005 4.87581 3.24155 5.33476 2.95393 5.89924C2.62695 6.54098 2.62695 7.38106 2.62695 9.06121V17.4612C2.62695 19.1414 2.62695 19.9815 2.95393 20.6232C3.24155 21.1877 3.7005 21.6466 4.26498 21.9342C4.90672 22.2612 5.7468 22.2612 7.42695 22.2612H15.827C17.5071 22.2612 18.3472 22.2612 18.9889 21.9342C19.5534 21.6466 20.0124 21.1877 20.3 20.6232C20.627 19.9815 20.627 19.1414 20.627 17.4612V13.2612M8.62693 16.2612H10.3015C10.7907 16.2612 11.0352 16.2612 11.2654 16.206C11.4695 16.157 11.6646 16.0762 11.8435 15.9665C12.0454 15.8428 12.2183 15.6699 12.5642 15.324L22.127 5.76121C22.9554 4.93279 22.9554 3.58964 22.127 2.76121C21.2985 1.93279 19.9554 1.93279 19.127 2.76121L9.56419 12.324C9.21828 12.6699 9.04533 12.8428 8.92165 13.0446C8.81199 13.2236 8.73118 13.4187 8.68219 13.6228C8.62693 13.8529 8.62693 14.0975 8.62693 14.5867V16.2612Z" stroke="#243831" stroke-width="1.5" stroke-linecap="round" stroke-linejoin="round"/>
</svg>
