<svg width="21" height="22" viewBox="0 0 21 22" fill="none" xmlns="http://www.w3.org/2000/svg">
<path d="M6.62695 16.2612H14.627M9.64465 2.02523L2.86234 7.30036C2.40897 7.65298 2.18229 7.82929 2.01898 8.05009C1.87432 8.24567 1.76655 8.46601 1.70098 8.70028C1.62695 8.96475 1.62695 9.25193 1.62695 9.82628V17.0612C1.62695 18.1813 1.62695 18.7414 1.84494 19.1692C2.03669 19.5455 2.34265 19.8515 2.71897 20.0432C3.1468 20.2612 3.70685 20.2612 4.82695 20.2612H16.427C17.5471 20.2612 18.1071 20.2612 18.5349 20.0432C18.9113 19.8515 19.2172 19.5455 19.409 19.1692C19.627 18.7414 19.627 18.1813 19.627 17.0612V9.82628C19.627 9.25193 19.627 8.96475 19.5529 8.70028C19.4874 8.46601 19.3796 8.24567 19.2349 8.05009C19.0716 7.82929 18.8449 7.65298 18.3916 7.30036L11.6093 2.02523C11.2579 1.75198 11.0823 1.61535 10.8883 1.56283C10.7171 1.51649 10.5368 1.51649 10.3656 1.56283C10.1716 1.61535 9.99597 1.75198 9.64465 2.02523Z" stroke="#243831" stroke-width="1.5" stroke-linecap="round" stroke-linejoin="round"/>
</svg>
